<svg width="248" height="226" viewBox="0 0 248 226" fill="none" xmlns="http://www.w3.org/2000/svg">
<g style="mix-blend-mode:hard-light">
<path d="M123.997 216.583C66.5751 204.953 20.6641 155.581 20.6641 103.583V47.0827L123.997 9.41602L227.331 47.0827V103.583C227.331 155.6 181.42 204.953 123.997 216.583ZM41.3307 56.4993V103.583C41.9212 125.355 50.3245 146.352 65.2542 163.358C80.184 180.365 100.818 192.445 123.997 197.749C147.177 192.445 167.811 180.365 182.741 163.358C197.67 146.352 206.074 125.355 206.664 103.583V56.4993L123.997 28.2493L41.3307 56.4993Z" fill="#FFFAFA"/>
<path d="M123.997 103.583C138.265 103.583 149.831 93.0434 149.831 80.0417C149.831 67.04 138.265 56.5 123.997 56.5C109.73 56.5 98.1641 67.04 98.1641 80.0417C98.1641 93.0434 109.73 103.583 123.997 103.583Z" fill="#FFFAFA"/>
<path d="M72.3359 141.25C77.4291 149.708 84.8971 156.781 93.9754 161.745C103.054 166.709 113.416 169.385 124.003 169.5C134.589 169.385 144.952 166.709 154.03 161.745C163.108 156.781 170.576 149.708 175.669 141.25C175.411 123.396 141.135 113 124.003 113C106.777 113 72.5943 123.396 72.3359 141.25Z" fill="#FFFAFA"/>
</g>
</svg>
