<svg width="238" height="208" viewBox="0 0 238 208" fill="none" xmlns="http://www.w3.org/2000/svg">
<path d="M119.003 17.334C92.8058 17.626 67.776 26.8506 49.2506 43.0409C30.7252 59.2312 20.17 81.106 19.8359 104.001C19.9584 117.338 23.6015 130.471 30.4816 142.376C37.3617 154.281 47.2931 164.638 59.5026 172.641V173.334H60.4943C77.285 184.579 97.8489 190.673 119.003 190.673C140.156 190.673 160.72 184.579 177.511 173.334H178.503V172.641C190.712 164.638 200.644 154.281 207.524 142.376C214.404 130.471 218.047 117.338 218.169 104.001C217.835 81.106 207.28 59.2312 188.755 43.0409C170.229 26.8506 145.199 17.626 119.003 17.334ZM80.0301 164.061C81.4778 158.266 85.1486 153.079 90.4335 149.359C95.7185 145.639 102.3 143.609 109.086 143.607H128.919C135.705 143.609 142.287 145.639 147.572 149.359C152.857 153.079 156.527 158.266 157.975 164.061C146.163 170.134 132.707 173.337 119.003 173.337C105.298 173.337 91.8422 170.134 80.0301 164.061ZM174.635 152.881C170.863 145.002 164.511 138.274 156.378 133.54C148.244 128.806 138.691 126.278 128.919 126.274H109.086C99.3138 126.278 89.7611 128.806 81.6275 133.54C73.4939 138.274 67.1421 145.002 63.3701 152.881C55.9392 146.493 50.0213 138.889 45.9546 130.502C41.8879 122.115 39.7521 113.109 39.6693 104.001C39.9265 85.6822 48.3674 68.1773 63.1899 55.2231C78.0124 42.269 98.042 34.8921 119.003 34.6673C139.963 34.8921 159.993 42.269 174.815 55.2231C189.638 68.1773 198.079 85.6822 198.336 104.001C198.253 113.109 196.117 122.115 192.051 130.502C187.984 138.889 182.066 146.493 174.635 152.881Z" fill="white"/>
<path d="M118.997 51.9994C113.755 51.8927 108.542 52.7164 103.674 54.4208C98.8066 56.1252 94.385 58.6748 90.677 61.9154C86.969 65.156 84.0517 69.0203 82.1015 73.2745C80.1512 77.5287 79.2087 82.0844 79.3308 86.6661C79.2087 91.2478 80.1512 95.8035 82.1015 100.058C84.0517 104.312 86.969 108.176 90.677 111.417C94.385 114.657 98.8066 117.207 103.674 118.911C108.542 120.616 113.755 121.439 118.997 121.333C124.24 121.439 129.453 120.616 134.321 118.911C139.188 117.207 143.61 114.657 147.318 111.417C151.026 108.176 153.943 104.312 155.894 100.058C157.844 95.8035 158.786 91.2478 158.664 86.6661C158.786 82.0844 157.844 77.5287 155.894 73.2745C153.943 69.0203 151.026 65.156 147.318 61.9154C143.61 58.6748 139.188 56.1252 134.321 54.4208C129.453 52.7164 124.24 51.8927 118.997 51.9994ZM118.997 103.999C116.359 104.111 113.723 103.739 111.259 102.907C108.795 102.076 106.557 100.803 104.69 99.1704C102.822 97.5381 101.365 95.5824 100.414 93.4289C99.4623 91.2755 99.0366 88.9719 99.1642 86.6661C99.0366 84.3603 99.4623 82.0567 100.414 79.9033C101.365 77.7498 102.822 75.7941 104.69 74.1618C106.557 72.5295 108.795 71.2566 111.259 70.425C113.723 69.5933 116.359 69.2213 118.997 69.3328C121.636 69.2213 124.272 69.5933 126.736 70.425C129.2 71.2566 131.438 72.5295 133.305 74.1618C135.173 75.7941 136.629 77.7498 137.581 79.9033C138.533 82.0567 138.958 84.3603 138.831 86.6661C138.958 88.9719 138.533 91.2755 137.581 93.4289C136.629 95.5824 135.173 97.5381 133.305 99.1704C131.438 100.803 129.2 102.076 126.736 102.907C124.272 103.739 121.636 104.111 118.997 103.999Z" fill="white"/>
</svg>
